<?xml version="1.0" encoding="utf-8"?>
<!-- Uploaded to: SVG Repo, www.svgrepo.com, Generator: SVG Repo Mixer Tools -->
<svg fill="#000000" version="1.1" id="Layer_1" xmlns="http://www.w3.org/2000/svg" xmlns:xlink="http://www.w3.org/1999/xlink" 
	 width="800px" height="800px" viewBox="0 0 141 260" enable-background="new 0 0 141 260" xml:space="preserve">
<path d="M83.654,145.881v-13.429h7.394c12.075,0,21.863-9.788,21.863-21.863V95.076h7.565c3.07,0,5.191-3.071,4.105-5.942
	L112.968,58.43c0,0-1.237-12.085-2.304-16.749C105.83,20.884,82.618,2,57.438,2C26.807,2,1.964,26.842,1.964,57.53
	c0,16.34,7.048,30.994,18.295,41.156v46.868c-8.846,7.135-14.466,18.09-14.466,30.669V258h133.242v0
	C139.034,213.135,117.146,165.465,83.654,145.881z M43.17,242.194c-4.75,0-8.601-3.851-8.601-8.601s3.851-8.601,8.601-8.601
	c4.75,0,8.601,3.851,8.601,8.601S47.92,242.194,43.17,242.194z M43.17,209.843c-4.75,0-8.601-3.851-8.601-8.601
	c0-4.75,3.851-8.601,8.601-8.601c4.75,0,8.601,3.851,8.601,8.601C51.77,205.992,47.92,209.843,43.17,209.843z M43.17,177.49
	c-4.75,0-8.601-3.851-8.601-8.601c0-4.75,3.851-8.601,8.601-8.601c4.75,0,8.601,3.851,8.601,8.601
	C51.77,173.64,47.92,177.49,43.17,177.49z M43.17,145.139c-4.75,0-8.601-3.851-8.601-8.601c0-4.75,3.851-8.601,8.601-8.601
	c4.75,0,8.601,3.851,8.601,8.601C51.77,141.289,47.92,145.139,43.17,145.139z M43.17,112.788c-4.75,0-8.601-3.851-8.601-8.601
	c0-4.75,3.851-8.601,8.601-8.601c4.75,0,8.601,3.851,8.601,8.601C51.77,108.938,47.92,112.788,43.17,112.788z M40.687,74.953
	c-24.593-0.336-29.121-38.992-1.719-50.537c30.368-12.795,55.986,7.051,52.705,22.44c-1.285,6.028-13.444,12.207-25.475,18.094
	C56.241,69.821,46.679,75.035,40.687,74.953z"/>
</svg>