<?xml version="1.0" encoding="iso-8859-1"?>
<!-- Uploaded to: SVG Repo, www.svgrepo.com, Generator: SVG Repo Mixer Tools -->
<svg height="800px" width="800px" version="1.1" id="Layer_1" xmlns="http://www.w3.org/2000/svg" xmlns:xlink="http://www.w3.org/1999/xlink" 
	 viewBox="0 0 460.002 460.002" xml:space="preserve">
<g id="XMLID_2971_">
	<path id="XMLID_1659_" style="fill:#B26259;" d="M442.281,459.669l-30.868-6.551l-116.695-24.765
		C274.468,424.056,260,406.332,260,385.822v-15.821v-120c-3.107,0-6.103-0.472-8.921-1.349c-0.47-0.146-0.934-0.303-1.394-0.472
		c-3.676-1.346-7.015-3.391-9.856-5.973c-0.71-0.646-1.39-1.325-2.035-2.035c-0.968-1.065-1.861-2.201-2.67-3.398
		c-3.235-4.788-5.124-10.56-5.124-16.773c0,16.569-13.431,30-30,30v120v15.821c0,20.511-14.468,38.234-34.718,42.532L48.587,453.118
		l-30.868,6.551c-10.524,2.234-19.803-7.166-17.31-17.535l59.793-248.71c4.711-19.595,22.389-33.423,42.727-33.423h31.784
		c9.66,0,18.729-4.651,24.365-12.497l37.166-51.734c2.443-3.4,3.757-7.482,3.757-11.669v-4.1v-50c0-16.569,13.431-30,30-30
		s30,13.431,30,30v50v4.101c0,4.187,1.314,8.269,3.757,11.669l37.166,51.734c5.636,7.845,14.705,12.497,24.365,12.497h31.784
		c20.338,0,38.016,13.828,42.726,33.423l59.793,248.71C462.084,452.503,452.805,461.903,442.281,459.669z"/>
	<path id="XMLID_1642_" style="fill:#7D9AAA;" d="M315.296,370.001H260v-120c-16.569,0-30-13.431-30-30c0,16.569-13.431,30-30,30
		v120h-55.296c-38.811,0-67.41-36.29-58.338-74.025l13.837-75.975c0.138-0.575,0.288-1.146,0.448-1.71
		c4.8-16.91,20.658-28.29,38.236-28.29H140c18.885,0,36.669-8.892,48-24c7.789-10.386,12-23.018,12-36V84.102V30.001
		c0-16.569,13.431-30,30-30s30,13.431,30,30v54.101v45.899c0,12.982,4.211,25.614,12,36c11.331,15.108,29.115,24,48,24h1.113
		c17.578,0,33.436,11.379,38.236,28.29c0.16,0.565,0.31,1.135,0.448,1.71l13.836,75.975
		C382.706,333.711,354.107,370.001,315.296,370.001z"/>
	<path id="XMLID_1603_" style="fill:#A6BECC;" d="M338.995,276.425c-0.714,12.81-11.331,23.576-24.977,23.576l0,0h-3.245
		c0,0-6.009-1.605-7.464-3.001c-1.941-1.861-3.189-4.445-3.309-7.333c0-7.594-2.116-14.694-5.791-20.741
		c-0.668-1.1-1.388-2.164-2.156-3.191c-2.687-3.594-5.965-6.72-9.689-9.236c-4.256-2.875-9.095-4.953-14.303-6.019
		c-2.604-0.533-5.3-0.813-8.061-0.813v0.334l0,0c-3.107,0-6.103-0.472-8.921-1.349c-5.167-1.607-9.734-4.573-13.285-8.48
		c-0.968-1.065-1.861-2.201-2.67-3.398c-0.27-0.399-1.744-2.893-2.165-3.767c-0.421-0.875-0.801-1.772-1.138-2.691
		c-1.178-3.216-1.82-6.689-1.82-10.314c-0.002,16.568-13.433,29.999-30.001,29.999v120h-55.296c-38.811,0-67.41-36.29-58.338-74.025
		l13.837-75.975c0.138-0.575,0.288-1.146,0.448-1.71c4.8-16.91,20.658-28.29,38.236-28.29H140c18.885,0,36.669-8.892,48-24
		c7.789-10.386,12-23.018,12-36V84.102V30.001c0-16.569,13.431-30,30-30v0.024c0.688,0.022,1.37,0.067,2.045,0.134
		c2.026,0.202,4.454,0.445,6.341,1.03c2.516,0.78,4.429,1.422,6.614,2.798v76.166c0,31.583,3.119,63.092,9.387,94.047
		c0.16,0.789,0.301,1.478,0.422,2.05c0.867,4.118,2.561,7.884,4.88,11.148c0.328,0.462,1.746,2.242,2.128,2.668
		c5.644,6.285,13.867,10.095,22.825,9.929c7.702-0.142,15.132,1.999,21.555,5.898c0.714,0.433,1.415,0.888,2.102,1.364
		c1.375,0.952,5.201,4.235,5.799,4.83c1.794,1.786,6.681,8.463,7.521,9.816c0.42,0.677,2.543,4.345,3.165,5.51
		c4.282,8.017,7.494,16.572,9.319,24.164l2.112,8.787l2.113,8.787C338.565,270.136,339.074,275.001,338.995,276.425z"/>
	<path id="XMLID_1559_" style="fill:#D7DBDD;" d="M121.672,269.153l4.225-17.574c2.573-10.703,7.891-23.324,15.096-33.644
		c7.84-11.229,20.673-18.192,34.366-17.94c14.385,0.266,26.88-9.718,29.833-23.746c0.12-0.572,0.262-1.261,0.422-2.05
		c6.268-30.954,9.387-62.464,9.387-94.047V4.061c4.369-2.753,9.496-3.861,15-4.036v89.976v31.223v28.777v70
		c0,16.569-13.432,30-30,30v-0.333c-22.091,0-40,17.909-40,40c-0.241,5.775-4.993,10.333-10.773,10.333h-3.245
		C129.809,300.001,117.891,284.878,121.672,269.153z"/>
	<path id="XMLID_1177_" style="fill:#9B534E;" d="M442.281,459.669l-147.563-31.316C274.468,424.056,260,406.332,260,385.822
		V249.668l0,0c22.091,0,40,17.909,40,40v1.667c0,52.651,42.682,95.333,95.333,95.333l0,0c29.868,0,55.844,20.471,62.825,49.511
		l1.432,5.955C462.084,452.503,452.805,461.903,442.281,459.669z"/>
	<path id="XMLID_1098_" style="fill:#9B534E;" d="M200,249.668v136.154c0,20.511-14.468,38.234-34.718,42.532L17.719,459.669
		c-10.524,2.234-19.803-7.166-17.31-17.536l1.432-5.955c6.982-29.04,32.958-49.511,62.825-49.511l0,0
		c52.651,0,95.333-42.682,95.333-95.333v-1.667C160,267.576,177.909,249.668,200,249.668z"/>
</g>
</svg>